<svg width="80" height="80" viewBox="0 0 80 80" fill="none" xmlns="http://www.w3.org/2000/svg">
<path d="M37.7649 49.8166C37.6596 38.9276 38.2143 32.0429 35.7781 24.1148C33.3136 38.0985 30.3502 44.5309 20.3808 51.8325L37.7649 49.8166Z" fill="white"/>
<path d="M40.745 48.8087C41.6494 32.1897 40.4828 23.6183 35.7781 9.5C49.9488 21.9732 56.7145 30.0202 66.0762 46.7929L40.745 48.8087Z" fill="white"/>
<path d="M77.5 49.3127L2.5 56.872C4.22552 59.497 5.81127 60.5583 9.45364 61.9116C9.45364 61.9116 13.0251 60.627 15.4139 60.3997C20.8006 59.8872 22.8642 62.9195 28.8245 62.9195C34.7848 62.9195 34.7848 59.8958 42.2351 59.8958C49.6854 59.8958 51.3009 64.3167 56.6391 63.4235C60.2349 62.8218 60.4712 60.8419 64.0894 60.3997C66.4083 60.1164 70.0497 60.9037 70.0497 60.9037C74.7462 57.7822 76.5144 55.3516 77.5 49.3127Z" fill="white"/>
<path d="M13.9238 64.4314C8.71122 65.3713 3.49341 70.4789 3.49341 70.4789C3.49341 70.4789 11.1846 66.9184 16.4073 66.9512C21.8694 66.9855 23.3628 69.897 28.8245 69.9749C33.8109 70.0461 37.2489 67.0383 42.2351 66.9512C48.0209 66.8501 50.8624 70.8227 56.6391 70.4789C61.2944 70.2018 63.4034 66.7593 68.0629 66.9512C71.4972 67.0926 76.5066 70.4789 76.5066 70.4789C76.5066 70.4789 73.1033 65.3687 69.0563 64.4314C64.5613 63.3903 61.2436 67.7199 56.6391 67.9591C50.9024 68.2572 47.9789 63.8581 42.2351 63.9274C37.2902 63.9871 34.7614 66.3135 29.8179 66.4472C24.1118 66.6016 19.5439 63.418 13.9238 64.4314Z" fill="white"/>
</svg>
